<?xml version="1.0" encoding="utf-8"?>
<!-- Generator: Adobe Illustrator 26.5.0, SVG Export Plug-In . SVG Version: 6.00 Build 0)  -->
<svg version="1.1" id="brand-lgo" xmlns="http://www.w3.org/2000/svg" xmlns:xlink="http://www.w3.org/1999/xlink" x="0px" y="0px"
	 viewBox="0 0 432 140" style="enable-background:new 0 0 432 140;" xml:space="preserve">
<style type="text/css">
	.st0{fill:#304C58;}
</style>
<path class="st0" d="M127.9,68.7c0-15.8-5.7-25.7-17.5-25.7c-13.6,0-24.6,14.1-24.6,28.6v51.5c0,6.2,3.2,8.3,16.2,8.3v5.8H72.4V68.7
	c0-15.8-5.7-25.7-17.5-25.7c-13.6,0-24.6,14.1-24.6,28.6v51.5c0,6.2,3.2,8.3,15.8,8.3v5.8H0v-5.8c13.6,0,16.8-2.1,16.8-8.3V53.8
	c0-6.2-3.2-8.3-15.6-8.3v-5.8L30,38.4v14.3h0.4c7.1-10,13.8-15.6,26-15.6c14.6,0,24.3,7.5,28.4,18.9c6.9-14.3,17.9-18.9,27.4-18.9
	c18.7,0,29.2,12,29.2,30.3v55.6c0,6.2,3.2,8.3,16.2,8.3v5.8h-29.6V68.7z"/>
<path class="st0" d="M169.4,83.8v6.3c0,24.3,11.7,43.6,33.2,43.6c18.9,0,26.3-8.7,34.5-20.8l5.2,3.5c-13,19.1-23.2,23.4-41.5,23.4
	c-29.7,0-48-26.5-48-53.6c0-31.7,17.6-53.6,47.1-53.6c26.9,0,42.3,25.6,42.3,51.2H169.4z M225.8,77.7c0-17.8-5.4-39.1-27.6-39.1
	c-20,0-28.9,20.2-28.9,39.1H225.8z"/>
<path class="st0" d="M260.5,49.9c0-6.5-3.5-8.7-17.2-8.7v-6.1l31.9-1.3v26h0.4c5-12.6,12.8-27.3,28.4-27.3c8.7,0,16.7,5.2,16.7,15
	c0,6.5-4.1,10.6-10,10.6c-5.9,0-10-3.3-10-9.8c-0.2-3.7,1.9-7.1,5.2-8.7c-0.7-0.9-2-1.1-3.2-1.1c-5.6,0-18.9,6.5-24.5,31.5
	c-3,13.7-3,33.9-3,48c0,10.8,3.5,13,19.5,13v6.1h-51.7v-6.1c13.9,0,17.4-2.2,17.4-8.7V49.9z"/>
<path class="st0" d="M372.5,137.2h-51.2v-6.1c15.2,0,18.7-2.2,18.7-8.7V49.9c0-6.5-3.5-8.7-17.1-8.7v-6.1l31.9-1.3v88.6
	c0,6.5,3.5,8.7,17.8,8.7L372.5,137.2z"/>
<path class="st0" d="M428.5,32.6v6.1H396v77.1c0,13.5,6.5,18,14.1,18c6.3,0,15.8-4.8,15.8-21.9v-9.3h6.1v7.8
	c0,17.4-8,29.5-25.8,29.5c-15.8,0-25-8.7-25-25.2v-76h-16.1v-6.1c18.2,0,23.4-17.8,24.7-32.6h6.1v32.6H428.5z"/>
</svg>
